<?xml version="1.0" encoding="UTF-8"?>
<svg xmlns="http://www.w3.org/2000/svg" xmlns:xlink="http://www.w3.org/1999/xlink" width="512px" height="512px" viewBox="0 0 512 512" version="1.1">
<g id="surface1">
<path style=" stroke:none;fill-rule:nonzero;fill:rgb(100%,100%,100%);fill-opacity:1;" d="M 46.933594 49.066406 L 464.214844 49.066406 L 464.214844 462.933594 L 46.933594 462.933594 Z M 46.933594 49.066406 "/>
<path style=" stroke:none;fill-rule:evenodd;fill:rgb(53.333336%,78.431374%,1.176471%);fill-opacity:1;" d="M 130.792969 0.0898438 C 100.507812 1.433594 83.207031 4.621094 66.804688 11.875 C 50.28125 19.183594 35.332031 30.792969 23.964844 45.132812 C 22.6875 46.746094 21.5 48.121094 21.324219 48.191406 C 21.144531 48.265625 21 48.480469 21 48.675781 C 21 48.867188 20.234375 50.175781 19.300781 51.578125 C 15.164062 57.796875 9.796875 68.945312 7.585938 75.925781 C 3.21875 89.699219 1.039062 105.136719 0.300781 127.535156 C 0.132812 132.582031 0 193.035156 0 261.871094 C 0.00390625 390.84375 0.0703125 396.816406 1.699219 410.464844 C 4.394531 433.082031 10.898438 450.902344 21.867188 465.722656 C 24.554688 469.359375 29.777344 475.109375 33.871094 478.957031 C 53.476562 497.367188 75.421875 506.859375 106.585938 510.414062 C 120.273438 511.96875 122.832031 512 253.542969 512 C 322.921875 512 383.261719 511.867188 387.625 511.707031 C 414.292969 510.714844 432.472656 506.855469 449.980469 498.460938 C 463.730469 491.867188 474.445312 483.710938 485.5625 471.367188 C 487.945312 468.726562 493.523438 461 495.558594 457.523438 C 502.324219 445.976562 506.082031 435.195312 508.761719 419.625 C 511.289062 404.960938 511.628906 398.121094 511.828125 357.746094 C 512.074219 309.496094 512.050781 134.964844 511.804688 134.597656 C 511.691406 134.433594 511.566406 131.417969 511.519531 127.890625 C 511.371094 116.859375 510.074219 102.53125 508.359375 92.972656 C 505.089844 74.738281 498.746094 59.460938 489.144531 46.695312 C 481.464844 36.484375 468.707031 24.976562 458.050781 18.65625 C 452.027344 15.078125 451.515625 14.804688 447.820312 13.09375 C 433.171875 6.3125 417.757812 2.628906 397.316406 1.015625 C 394.394531 0.785156 391.144531 0.488281 390.09375 0.351562 C 388.242188 0.117188 135.921875 -0.140625 130.792969 0.0898438 Z M 247.808594 67.113281 C 247.691406 67.207031 243.777344 67.402344 239.109375 67.542969 C 229.804688 67.824219 219.976562 68.375 214.042969 68.949219 C 211.941406 69.152344 208.976562 69.425781 207.460938 69.554688 C 205.941406 69.683594 204.21875 69.851562 203.636719 69.929688 C 203.050781 70.003906 201.332031 70.179688 199.8125 70.320312 C 197.097656 70.570312 186.898438 71.863281 178.152344 73.070312 C 165.269531 74.847656 145.148438 79.082031 137.3125 81.664062 C 131.054688 83.726562 126.957031 85.777344 122.726562 88.960938 C 122.257812 89.3125 121.21875 90.09375 120.417969 90.695312 C 118.007812 92.511719 114.078125 97.367188 112.132812 100.9375 C 108.644531 107.34375 107.507812 112.285156 107.011719 123.191406 C 106.871094 126.28125 106.667969 129.796875 106.5625 131.003906 C 106.347656 133.453125 105.667969 144.765625 105.300781 151.941406 C 105.011719 157.546875 103.921875 176.363281 103.613281 181.035156 C 103.496094 182.859375 103.207031 187.957031 102.976562 192.359375 C 102.746094 196.761719 102.453125 201.507812 102.332031 202.902344 C 102.128906 205.222656 101.1875 221.617188 100.632812 232.582031 C 100.503906 235.054688 100.3125 238.214844 100.203125 239.613281 C 100.003906 242.132812 99.402344 253.308594 98.917969 263.433594 C 98.78125 266.332031 98.554688 269.234375 98.410156 269.878906 C 98.269531 270.523438 98.082031 297.9375 97.988281 330.800781 C 97.800781 398.523438 97.539062 393.144531 101.300781 398.320312 C 103.945312 401.953125 107.296875 404.410156 111.515625 405.804688 C 113.203125 406.363281 120.871094 406.78125 128.988281 406.761719 L 131.007812 406.753906 L 131.007812 420.410156 C 131.007812 433.261719 131.058594 434.1875 131.886719 436.222656 C 133.050781 439.082031 136.308594 442.332031 139.421875 443.738281 L 141.835938 444.828125 L 154.367188 444.828125 C 166.578125 444.828125 166.945312 444.808594 168.878906 443.933594 C 172.050781 442.496094 174.574219 440.183594 176.117188 437.304688 L 177.515625 434.695312 L 177.652344 420.628906 L 177.792969 406.558594 L 334.242188 406.558594 L 334.453125 420.8125 C 334.703125 437.382812 334.707031 437.410156 339.0625 441.222656 C 343.054688 444.71875 343.632812 444.828125 358.027344 444.828125 C 369.949219 444.828125 370.40625 444.804688 372.289062 443.949219 C 374.820312 442.804688 377.582031 440.609375 378.882812 438.710938 C 380.882812 435.796875 381.09375 434.074219 381.144531 420.078125 C 381.171875 412.90625 381.304688 406.878906 381.441406 406.675781 C 381.582031 406.46875 384.300781 406.386719 387.90625 406.492188 C 391.328125 406.585938 395.53125 406.507812 397.242188 406.308594 C 404.535156 405.472656 410.765625 400.414062 413.0625 393.46875 C 413.929688 390.84375 413.933594 390.488281 413.75 329.769531 C 413.648438 296.183594 413.449219 268.003906 413.304688 267.144531 C 413.164062 266.285156 412.753906 260.222656 412.398438 253.671875 C 412.042969 247.121094 411.65625 240.265625 411.535156 238.441406 C 411.042969 230.910156 410.90625 228.664062 410.6875 224.382812 C 410.566406 221.914062 410.375 218.660156 410.265625 217.15625 C 410.160156 215.65625 409.96875 212.402344 409.839844 209.933594 C 409.714844 207.464844 409.519531 204.210938 409.402344 202.707031 C 409.285156 201.203125 409 196.285156 408.765625 191.777344 C 408.53125 187.269531 408.253906 182.527344 408.152344 181.234375 C 408.046875 179.941406 407.855469 176.601562 407.722656 173.808594 C 407.585938 171.019531 407.390625 167.589844 407.285156 166.195312 C 407.179688 164.796875 406.890625 159.527344 406.648438 154.480469 C 406.40625 149.433594 405.929688 141.085938 405.597656 135.929688 C 405.261719 130.773438 404.878906 124.449219 404.75 121.871094 C 404.199219 110.933594 402.925781 105.648438 399.546875 100.222656 C 397.835938 97.484375 392.855469 91.847656 390.660156 90.175781 C 389.578125 89.351562 388.46875 88.472656 388.191406 88.222656 C 387.324219 87.449219 383.207031 85.128906 380.347656 83.804688 C 377.027344 82.265625 368.941406 79.785156 363.625 78.675781 C 348.847656 75.589844 332.308594 72.703125 322.5625 71.503906 C 321.746094 71.402344 320.40625 71.238281 319.589844 71.136719 C 305.769531 69.445312 292.554688 68.285156 283.3125 67.953125 C 279.789062 67.824219 276.640625 67.644531 276.324219 67.550781 C 275.519531 67.316406 248.070312 66.894531 247.808594 67.113281 Z M 190.683594 90.242188 C 188.511719 90.945312 185.582031 93.777344 184.988281 95.742188 C 184.386719 97.742188 184.398438 101.089844 185.015625 102.984375 C 185.691406 105.058594 187.945312 107.367188 190.363281 108.460938 L 192.382812 109.375 L 320.226562 109.335938 L 321.980469 108.492188 C 325.824219 106.644531 327.339844 104.269531 327.410156 100 C 327.484375 95.332031 325.46875 92.035156 321.535156 90.394531 C 319.871094 89.699219 317.226562 89.671875 256.089844 89.679688 C 202.246094 89.6875 192.117188 89.773438 190.683594 90.242188 Z M 145.449219 128.285156 C 137.136719 130.722656 130.742188 137.171875 129.351562 144.519531 C 129.105469 145.808594 128.707031 150.992188 128.464844 156.042969 C 127.96875 166.253906 127.304688 177.265625 126.960938 180.839844 C 126.734375 183.21875 126.222656 192.097656 125.488281 206.222656 C 124.828125 219.015625 123.964844 233.484375 123.589844 238.050781 C 123.476562 239.445312 123.277344 242.609375 123.148438 245.078125 C 123.019531 247.550781 122.628906 254.316406 122.277344 260.113281 C 121.203125 277.871094 121.070312 282.949219 121.621094 285.304688 C 122.257812 288.035156 124.683594 292.566406 126.617188 294.644531 C 128.808594 296.996094 133.152344 299.695312 136.648438 300.871094 L 139.714844 301.898438 L 372.46875 301.898438 L 375.230469 300.984375 C 380.820312 299.132812 385.699219 295.28125 388.171875 290.769531 C 390.507812 286.507812 390.964844 281.351562 390.113281 268.902344 C 389.902344 265.789062 389.613281 261.042969 389.46875 258.359375 C 389.210938 253.453125 388.753906 245.890625 387.972656 233.558594 C 387.742188 229.90625 387.359375 223.582031 387.121094 219.5 C 386.886719 215.421875 386.601562 210.675781 386.492188 208.957031 C 386.386719 207.238281 386.183594 203.722656 386.046875 201.144531 C 385.910156 198.570312 385.722656 195.667969 385.632812 194.703125 C 385.539062 193.738281 385.351562 190.75 385.214844 188.0625 C 385.074219 185.378906 384.882812 182.214844 384.785156 181.035156 C 384.453125 177.042969 383.722656 164.492188 383.289062 155.261719 C 382.800781 144.882812 382.347656 142.40625 380.296875 138.871094 C 377.640625 134.289062 373.652344 130.980469 368.007812 128.679688 L 365.671875 127.730469 L 256.726562 127.664062 C 153.953125 127.605469 147.652344 127.640625 145.449219 128.285156 Z M 71.96875 158.917969 C 68.546875 159.855469 67.742188 160.289062 65.21875 162.574219 C 61.085938 166.316406 60.972656 166.769531 59.855469 184.355469 C 59.71875 186.503906 59.527344 188.699219 59.433594 189.234375 C 59.335938 189.773438 59.140625 192.410156 59 195.09375 C 58.855469 197.777344 58.5625 201.90625 58.34375 204.269531 C 57.554688 212.890625 57.382812 219.917969 57.914062 221.898438 C 59.136719 226.4375 63.03125 230.230469 68.074219 231.785156 C 70.402344 232.5 71.671875 232.605469 77.457031 232.5625 C 81.136719 232.535156 84.339844 232.398438 84.574219 232.257812 C 84.980469 232.011719 86.46875 215.558594 87.898438 195.484375 C 88.242188 190.652344 88.625 185.46875 88.75 183.964844 C 90.285156 165.308594 90.632812 159.378906 90.222656 159 C 89.503906 158.339844 74.328125 158.273438 71.96875 158.917969 Z M 421.890625 159.195312 C 421.339844 159.640625 421.175781 159.878906 421.523438 159.722656 C 421.980469 159.523438 422.039062 159.566406 421.726562 159.878906 C 421.3125 160.292969 421.792969 169.550781 423.195312 188.257812 C 423.453125 191.695312 423.851562 197.230469 424.082031 200.5625 C 424.3125 203.890625 424.589844 207.492188 424.699219 208.566406 C 424.8125 209.640625 425.089844 212.714844 425.320312 215.402344 C 426.527344 229.488281 426.777344 231.683594 427.203125 232.074219 C 427.390625 232.246094 430.921875 232.386719 435.046875 232.386719 C 442.320312 232.386719 442.625 232.355469 445.011719 231.328125 C 451.359375 228.59375 454.34375 224.226562 454.300781 217.742188 C 454.285156 214.996094 452.65625 192.285156 451.921875 184.550781 C 451.804688 183.367188 451.597656 180.117188 451.457031 177.324219 C 451.3125 174.53125 451 171.203125 450.765625 169.929688 C 449.769531 164.519531 445.957031 160.574219 440.199219 159.003906 C 438.507812 158.539062 436.039062 158.382812 430.414062 158.382812 C 423.40625 158.382812 422.824219 158.441406 421.890625 159.195312 Z M 207.933594 162.386719 C 207.738281 162.871094 207.4375 163.960938 207.269531 164.8125 C 206.273438 169.832031 202 174.679688 196.292969 177.269531 C 191.679688 179.367188 187.414062 180.238281 180.390625 180.523438 C 175.140625 180.734375 174.3125 180.855469 174.109375 181.449219 C 173.929688 181.96875 174.15625 191.824219 174.4375 195.777344 C 174.464844 196.15625 177.683594 196.265625 189.027344 196.265625 C 200.058594 196.265625 203.664062 196.382812 203.90625 196.742188 C 204.085938 197.007812 204.179688 200.652344 204.117188 204.847656 C 203.875 221.273438 203.742188 273.441406 203.941406 274.269531 L 204.152344 275.148438 L 228.269531 275.148438 L 228.269531 161.507812 L 218.277344 161.507812 C 208.304688 161.507812 208.285156 161.511719 207.933594 162.386719 Z M 264.1875 163.558594 C 264 164.390625 263.273438 169.714844 262.234375 177.910156 C 261.972656 179.949219 261.695312 182.058594 261.613281 182.597656 C 261.535156 183.132812 261.355469 184.453125 261.222656 185.527344 C 259.953125 195.574219 257.523438 213.667969 256.53125 220.445312 C 256.175781 222.898438 255.9375 224.957031 256.007812 225.023438 C 256.167969 225.167969 265.710938 225.84375 272.480469 226.191406 L 277.472656 226.445312 L 279.90625 224.027344 C 283.417969 220.542969 286.761719 218.910156 291.617188 218.304688 C 301.589844 217.066406 309.691406 222.46875 312.210938 232.039062 C 313.140625 235.554688 313.144531 242.082031 312.226562 245.566406 C 311.289062 249.121094 309.03125 253.109375 306.785156 255.183594 C 305.769531 256.125 303.691406 257.441406 302.175781 258.113281 C 299.554688 259.273438 299.15625 259.332031 294.296875 259.332031 C 289.230469 259.332031 289.144531 259.320312 285.929688 257.859375 C 281.027344 255.632812 278.082031 251.910156 277.003906 246.597656 L 276.539062 244.300781 L 252.480469 244.300781 L 252.480469 245.4375 C 252.480469 249.109375 254.863281 256.308594 257.597656 260.894531 C 261.851562 268.03125 270.335938 273.542969 281.148438 276.195312 C 285.066406 277.152344 286.078125 277.238281 294.105469 277.265625 C 304.097656 277.300781 307.359375 276.828125 313.832031 274.398438 C 326.925781 269.480469 335.109375 259.269531 337.617188 244.722656 C 339.222656 235.394531 337.421875 224.550781 333.066406 217.351562 C 329.96875 212.238281 324.527344 207.277344 319.164062 204.6875 C 307.160156 198.886719 291.875 198.730469 281.625 204.304688 C 280.25 205.054688 279.023438 205.570312 278.894531 205.453125 C 278.5 205.085938 282.042969 182.226562 282.574219 181.722656 C 282.742188 181.566406 294.199219 181.429688 308.039062 181.417969 L 333.195312 181.402344 L 333.082031 172.136719 L 332.96875 162.875 L 298.679688 162.777344 L 264.390625 162.675781 Z M 150.265625 332.960938 C 143.019531 334.148438 136.550781 338.429688 133.15625 344.285156 C 129.925781 349.859375 129.722656 357.964844 132.664062 363.96875 C 135.023438 368.78125 140.722656 373.296875 146.933594 375.277344 C 150.214844 376.320312 156.105469 376.523438 159.675781 375.71875 C 165.246094 374.460938 170.429688 371.035156 173.824219 366.375 C 182.566406 354.351562 175.640625 337.152344 160.582031 333.492188 C 157.609375 332.769531 152.910156 332.527344 150.265625 332.960938 Z M 352.808594 333.152344 C 344.304688 334.847656 337.519531 340.636719 335.117188 348.234375 C 332.183594 357.507812 336.6875 368.332031 345.445312 373.078125 C 350.261719 375.683594 356.574219 376.777344 362.0625 375.953125 C 369.8125 374.789062 377.5625 368.679688 380.101562 361.722656 C 383.117188 353.457031 380.941406 345.117188 374.152344 338.9375 C 368.242188 333.5625 360.820312 331.550781 352.808594 333.152344 Z M 352.808594 333.152344 "/>
</g>
</svg>
