<?xml version="1.0" encoding="UTF-8"?>
<svg xmlns="http://www.w3.org/2000/svg" xmlns:xlink="http://www.w3.org/1999/xlink" width="192px" height="192px" viewBox="0 0 192 192" version="1.1">
<g id="surface1">
<path style=" stroke:none;fill-rule:nonzero;fill:rgb(100%,100%,100%);fill-opacity:1;" d="M 17.601562 18.398438 L 174.078125 18.398438 L 174.078125 173.601562 L 17.601562 173.601562 Z M 17.601562 18.398438 "/>
<path style=" stroke:none;fill-rule:evenodd;fill:rgb(53.333336%,78.431374%,1.176471%);fill-opacity:1;" d="M 49.046875 0.03125 C 37.691406 0.539062 31.203125 1.734375 25.050781 4.453125 C 18.855469 7.195312 13.25 11.546875 8.988281 16.925781 C 8.507812 17.527344 8.0625 18.046875 7.996094 18.074219 C 7.929688 18.097656 7.875 18.179688 7.875 18.253906 C 7.875 18.324219 7.589844 18.816406 7.238281 19.34375 C 5.6875 21.671875 3.675781 25.855469 2.84375 28.472656 C 1.207031 33.636719 0.390625 39.425781 0.113281 47.824219 C 0.0507812 49.71875 0 72.386719 0 98.203125 C 0 146.566406 0.0273438 148.808594 0.636719 153.925781 C 1.648438 162.40625 4.085938 169.089844 8.199219 174.644531 C 9.207031 176.007812 11.164062 178.167969 12.703125 179.609375 C 20.054688 186.511719 28.285156 190.070312 39.96875 191.40625 C 45.101562 191.988281 46.0625 192 95.078125 192 C 121.097656 192 143.722656 191.949219 145.359375 191.890625 C 155.359375 191.519531 162.175781 190.070312 168.742188 186.921875 C 173.898438 184.449219 177.917969 181.390625 182.085938 176.761719 C 182.980469 175.773438 185.070312 172.875 185.835938 171.570312 C 188.371094 167.242188 189.78125 163.199219 190.785156 157.359375 C 191.734375 151.859375 191.859375 149.292969 191.9375 134.152344 C 192.027344 116.0625 192.019531 50.613281 191.925781 50.472656 C 191.886719 50.414062 191.835938 49.28125 191.820312 47.960938 C 191.765625 43.820312 191.277344 38.449219 190.636719 34.863281 C 189.40625 28.027344 187.03125 22.296875 183.429688 17.511719 C 180.546875 13.679688 175.765625 9.367188 171.769531 6.996094 C 169.511719 5.65625 169.320312 5.550781 167.933594 4.910156 C 162.441406 2.367188 156.660156 0.984375 148.992188 0.378906 C 147.898438 0.292969 146.679688 0.183594 146.285156 0.132812 C 145.589844 0.0429688 50.972656 -0.0507812 49.046875 0.03125 Z M 92.929688 25.167969 C 92.882812 25.203125 91.417969 25.277344 89.667969 25.328125 C 86.175781 25.433594 82.492188 25.640625 80.265625 25.855469 C 79.476562 25.933594 78.367188 26.035156 77.796875 26.082031 C 77.226562 26.132812 76.582031 26.195312 76.363281 26.222656 C 76.144531 26.25 75.5 26.316406 74.929688 26.371094 C 73.910156 26.464844 70.085938 26.949219 66.808594 27.402344 C 61.976562 28.066406 54.429688 29.65625 51.492188 30.625 C 49.144531 31.398438 47.609375 32.167969 46.023438 33.359375 C 45.847656 33.492188 45.457031 33.785156 45.15625 34.011719 C 44.253906 34.691406 42.777344 36.511719 42.050781 37.851562 C 40.742188 40.253906 40.316406 42.105469 40.128906 46.195312 C 40.074219 47.355469 40 48.671875 39.960938 49.125 C 39.878906 50.042969 39.625 54.285156 39.488281 56.976562 C 39.378906 59.082031 38.972656 66.136719 38.855469 67.886719 C 38.8125 68.574219 38.703125 70.484375 38.617188 72.136719 C 38.527344 73.785156 38.421875 75.566406 38.375 76.089844 C 38.296875 76.957031 37.945312 83.105469 37.738281 87.21875 C 37.691406 88.144531 37.617188 89.332031 37.574219 89.855469 C 37.5 90.800781 37.277344 94.988281 37.09375 98.789062 C 37.042969 99.875 36.957031 100.960938 36.90625 101.203125 C 36.851562 101.445312 36.78125 111.726562 36.746094 124.050781 C 36.675781 149.445312 36.578125 147.429688 37.988281 149.371094 C 38.980469 150.734375 40.234375 151.652344 41.820312 152.175781 C 42.449219 152.386719 45.328125 152.542969 48.371094 152.535156 L 49.128906 152.53125 L 49.128906 157.652344 C 49.128906 162.472656 49.148438 162.820312 49.457031 163.585938 C 49.894531 164.65625 51.117188 165.875 52.28125 166.402344 L 53.1875 166.8125 L 57.886719 166.8125 C 62.46875 166.8125 62.605469 166.804688 63.328125 166.476562 C 64.519531 165.9375 65.464844 165.070312 66.042969 163.988281 L 66.566406 163.011719 L 66.621094 157.734375 L 66.671875 152.460938 L 125.339844 152.460938 L 125.421875 157.804688 C 125.511719 164.019531 125.515625 164.027344 127.148438 165.460938 C 128.644531 166.769531 128.863281 166.8125 134.261719 166.8125 C 138.730469 166.8125 138.902344 166.800781 139.609375 166.480469 C 140.558594 166.050781 141.59375 165.230469 142.082031 164.515625 C 142.832031 163.425781 142.910156 162.777344 142.929688 157.527344 C 142.941406 154.839844 142.988281 152.578125 143.039062 152.503906 C 143.09375 152.425781 144.113281 152.394531 145.464844 152.433594 C 146.75 152.46875 148.324219 152.441406 148.964844 152.367188 C 151.699219 152.054688 154.039062 150.15625 154.898438 147.550781 C 155.222656 146.566406 155.226562 146.433594 155.15625 123.664062 C 155.117188 111.070312 155.042969 100.5 154.988281 100.179688 C 154.9375 99.855469 154.78125 97.582031 154.648438 95.125 C 154.515625 92.671875 154.371094 90.101562 154.324219 89.414062 C 154.140625 86.59375 154.089844 85.75 154.007812 84.144531 C 153.960938 83.21875 153.890625 81.996094 153.851562 81.433594 C 153.808594 80.871094 153.738281 79.652344 153.691406 78.726562 C 153.644531 77.796875 153.570312 76.578125 153.527344 76.015625 C 153.480469 75.453125 153.375 73.605469 153.285156 71.917969 C 153.199219 70.226562 153.09375 68.449219 153.058594 67.964844 C 153.019531 67.480469 152.945312 66.226562 152.894531 65.179688 C 152.84375 64.132812 152.773438 62.847656 152.730469 62.324219 C 152.691406 61.800781 152.585938 59.824219 152.492188 57.929688 C 152.402344 56.035156 152.222656 52.90625 152.097656 50.972656 C 151.972656 49.039062 151.828125 46.667969 151.78125 45.703125 C 151.574219 41.601562 151.097656 39.617188 149.828125 37.582031 C 149.1875 36.554688 147.320312 34.441406 146.496094 33.816406 C 146.09375 33.507812 145.675781 33.175781 145.570312 33.085938 C 145.246094 32.792969 143.703125 31.921875 142.628906 31.425781 C 141.382812 30.847656 138.351562 29.917969 136.359375 29.503906 C 130.816406 28.347656 124.617188 27.261719 120.960938 26.8125 C 120.652344 26.777344 120.152344 26.714844 119.847656 26.675781 C 114.664062 26.042969 109.707031 25.605469 106.242188 25.480469 C 104.921875 25.433594 103.742188 25.367188 103.621094 25.332031 C 103.320312 25.246094 93.027344 25.085938 92.929688 25.167969 Z M 71.503906 33.839844 C 70.691406 34.105469 69.59375 35.167969 69.371094 35.902344 C 69.144531 36.652344 69.148438 37.910156 69.382812 38.621094 C 69.632812 39.398438 70.480469 40.261719 71.386719 40.671875 L 72.144531 41.015625 L 96.113281 41.007812 L 120.085938 41 L 120.742188 40.683594 C 122.183594 39.992188 122.753906 39.101562 122.777344 37.5 C 122.804688 35.75 122.050781 34.511719 120.574219 33.898438 C 119.953125 33.636719 118.960938 33.625 96.035156 33.628906 C 75.84375 33.632812 72.042969 33.664062 71.503906 33.839844 Z M 54.542969 48.105469 C 51.425781 49.019531 49.027344 51.4375 48.507812 54.195312 C 48.414062 54.679688 48.265625 56.621094 48.171875 58.515625 C 47.988281 62.34375 47.738281 66.476562 47.609375 67.816406 C 47.527344 68.707031 47.332031 72.035156 47.058594 77.332031 C 46.8125 82.132812 46.488281 87.554688 46.347656 89.269531 C 46.304688 89.792969 46.230469 90.980469 46.179688 91.90625 C 46.132812 92.832031 45.984375 95.367188 45.855469 97.542969 C 45.453125 104.203125 45.402344 106.105469 45.609375 106.988281 C 45.847656 108.011719 46.753906 109.710938 47.480469 110.492188 C 48.304688 111.375 49.933594 112.386719 51.242188 112.824219 L 52.394531 113.210938 L 139.675781 113.210938 L 140.710938 112.871094 C 142.808594 112.175781 144.636719 110.730469 145.566406 109.039062 C 146.441406 107.441406 146.613281 105.507812 146.292969 100.839844 C 146.214844 99.671875 146.105469 97.890625 146.050781 96.882812 C 145.953125 95.046875 145.78125 92.210938 145.488281 87.585938 C 145.402344 86.214844 145.257812 83.84375 145.171875 82.3125 C 145.082031 80.78125 144.976562 79.003906 144.933594 78.359375 C 144.894531 77.714844 144.820312 76.394531 144.765625 75.429688 C 144.714844 74.464844 144.644531 73.375 144.613281 73.011719 C 144.578125 72.652344 144.507812 71.53125 144.457031 70.523438 C 144.402344 69.515625 144.332031 68.332031 144.292969 67.886719 C 144.167969 66.390625 143.894531 61.683594 143.734375 58.222656 C 143.550781 54.332031 143.378906 53.402344 142.613281 52.074219 C 141.617188 50.359375 140.121094 49.117188 138.003906 48.253906 L 137.128906 47.898438 L 96.273438 47.875 C 57.730469 47.851562 55.371094 47.863281 54.542969 48.105469 Z M 26.988281 59.59375 C 25.707031 59.945312 25.402344 60.109375 24.457031 60.964844 C 22.90625 62.371094 22.867188 62.539062 22.445312 69.132812 C 22.394531 69.9375 22.324219 70.761719 22.285156 70.964844 C 22.25 71.164062 22.179688 72.152344 22.125 73.160156 C 22.070312 74.167969 21.960938 75.714844 21.878906 76.601562 C 21.582031 79.835938 21.519531 82.46875 21.71875 83.210938 C 22.175781 84.914062 23.636719 86.335938 25.527344 86.917969 C 26.402344 87.1875 26.875 87.226562 29.046875 87.210938 C 30.425781 87.199219 31.628906 87.148438 31.714844 87.097656 C 31.867188 87.003906 32.425781 80.835938 32.960938 73.304688 C 33.089844 71.496094 33.234375 69.550781 33.28125 68.988281 C 33.855469 61.992188 33.988281 59.765625 33.832031 59.625 C 33.5625 59.378906 27.875 59.351562 26.988281 59.59375 Z M 158.207031 59.699219 C 158.003906 59.867188 157.941406 59.953125 158.070312 59.894531 C 158.242188 59.820312 158.265625 59.835938 158.148438 59.953125 C 157.992188 60.109375 158.171875 63.582031 158.699219 70.597656 C 158.796875 71.886719 158.945312 73.960938 159.03125 75.210938 C 159.117188 76.457031 159.222656 77.808594 159.261719 78.210938 C 159.304688 78.613281 159.410156 79.769531 159.496094 80.773438 C 159.949219 86.058594 160.042969 86.882812 160.203125 87.027344 C 160.273438 87.09375 161.59375 87.144531 163.140625 87.144531 C 165.871094 87.144531 165.984375 87.132812 166.878906 86.746094 C 169.257812 85.722656 170.378906 84.085938 170.363281 81.652344 C 170.355469 80.625 169.746094 72.105469 169.46875 69.207031 C 169.425781 68.761719 169.347656 67.542969 169.296875 66.496094 C 169.242188 65.449219 169.125 64.203125 169.035156 63.722656 C 168.664062 61.695312 167.234375 60.214844 165.074219 59.625 C 164.441406 59.453125 163.515625 59.394531 161.40625 59.394531 C 158.777344 59.394531 158.558594 59.414062 158.207031 59.699219 Z M 77.976562 60.894531 C 77.902344 61.078125 77.789062 61.484375 77.726562 61.804688 C 77.351562 63.6875 75.75 65.503906 73.609375 66.476562 C 71.878906 67.261719 70.28125 67.589844 67.644531 67.695312 C 65.679688 67.773438 65.367188 67.820312 65.289062 68.042969 C 65.222656 68.238281 65.308594 71.933594 65.414062 73.417969 C 65.425781 73.558594 66.632812 73.597656 70.886719 73.597656 C 75.023438 73.597656 76.375 73.644531 76.464844 73.777344 C 76.53125 73.878906 76.566406 75.246094 76.542969 76.816406 C 76.453125 82.976562 76.402344 102.539062 76.476562 102.851562 L 76.558594 103.179688 L 85.601562 103.179688 L 85.601562 60.566406 L 81.855469 60.566406 C 78.113281 60.566406 78.109375 60.566406 77.976562 60.894531 Z M 99.070312 61.332031 C 99 61.648438 98.726562 63.640625 98.335938 66.714844 C 98.242188 67.480469 98.136719 68.273438 98.105469 68.472656 C 98.074219 68.675781 98.007812 69.167969 97.957031 69.570312 C 97.480469 73.339844 96.570312 80.125 96.199219 82.667969 C 96.066406 83.585938 95.976562 84.359375 96.003906 84.382812 C 96.0625 84.4375 99.640625 84.691406 102.179688 84.820312 L 104.050781 84.917969 L 104.964844 84.011719 C 106.28125 82.703125 107.535156 82.089844 109.355469 81.863281 C 113.097656 81.398438 116.132812 83.425781 117.078125 87.015625 C 117.425781 88.332031 117.429688 90.78125 117.085938 92.085938 C 116.734375 93.417969 115.886719 94.917969 115.042969 95.695312 C 114.664062 96.046875 113.886719 96.539062 113.316406 96.792969 C 112.332031 97.226562 112.183594 97.25 110.359375 97.25 C 108.460938 97.25 108.429688 97.246094 107.222656 96.695312 C 105.386719 95.863281 104.28125 94.46875 103.878906 92.476562 L 103.703125 91.613281 L 94.679688 91.613281 L 94.679688 92.039062 C 94.679688 93.417969 95.574219 96.117188 96.597656 97.835938 C 98.195312 100.511719 101.375 102.578125 105.429688 103.574219 C 106.898438 103.933594 107.28125 103.964844 110.289062 103.976562 C 114.035156 103.988281 115.257812 103.8125 117.6875 102.898438 C 122.597656 101.054688 125.667969 97.226562 126.605469 91.773438 C 127.207031 88.273438 126.53125 84.207031 124.898438 81.507812 C 123.738281 79.589844 121.695312 77.730469 119.6875 76.757812 C 115.183594 74.582031 109.453125 74.523438 105.609375 76.613281 C 105.09375 76.894531 104.632812 77.089844 104.585938 77.042969 C 104.4375 76.90625 105.765625 68.335938 105.964844 68.144531 C 106.027344 68.085938 110.324219 68.035156 115.515625 68.03125 L 124.949219 68.027344 L 124.90625 64.550781 L 124.863281 61.078125 L 112.003906 61.039062 L 99.148438 61.003906 Z M 56.351562 124.859375 C 53.632812 125.304688 51.207031 126.910156 49.933594 129.105469 C 48.722656 131.195312 48.644531 134.238281 49.75 136.488281 C 50.632812 138.292969 52.769531 139.988281 55.101562 140.726562 C 56.328125 141.121094 58.539062 141.195312 59.878906 140.894531 C 61.96875 140.421875 63.910156 139.136719 65.183594 137.390625 C 68.460938 132.882812 65.867188 126.433594 60.21875 125.058594 C 59.101562 124.789062 57.339844 124.699219 56.351562 124.859375 Z M 132.300781 124.933594 C 129.113281 125.566406 126.570312 127.738281 125.667969 130.589844 C 124.570312 134.066406 126.257812 138.125 129.542969 139.902344 C 131.347656 140.882812 133.714844 141.292969 135.773438 140.984375 C 138.679688 140.546875 141.585938 138.253906 142.539062 135.648438 C 143.667969 132.546875 142.851562 129.417969 140.304688 127.101562 C 138.089844 125.085938 135.308594 124.332031 132.300781 124.933594 Z M 132.300781 124.933594 "/>
</g>
</svg>
